<svg width="756" height="188" viewBox="0 0 756 188" fill="none" xmlns="http://www.w3.org/2000/svg">
  <defs>
    <linearGradient id="obsyd-ring" x1="34" y1="46" x2="209" y2="208" gradientUnits="userSpaceOnUse">
      <stop stop-color="#7C6FF0"/>
      <stop offset="0.55" stop-color="#5D8BEE"/>
      <stop offset="1" stop-color="#42D6A5"/>
    </linearGradient>
    <linearGradient id="obsyd-bars" x1="84" y1="182" x2="170" y2="90" gradientUnits="userSpaceOnUse">
      <stop stop-color="#59E0B2"/>
      <stop offset="1" stop-color="#37C6A2"/>
    </linearGradient>
  </defs>
  <g transform="translate(0 0)">
    <path d="M128 28C72.7715 28 28 72.7715 28 128C28 172.753 57.395 210.638 98 223.463V190.329C76.4162 179.355 61.6 156.941 61.6 131.067C61.6 94.4217 91.6887 64.7333 128.5 64.7333C156.546 64.7333 180.546 81.9528 190.511 106.367L216.881 85.3704C201.185 51.1986 167.168 28 128 28Z" fill="url(#obsyd-ring)"/>
    <path d="M216.941 117.004L190.904 137.854C186.553 174.983 158.387 204.707 122.767 210.849V244C175.414 241.237 218 198.213 218 145.067C218 135.629 216.653 126.506 214.141 117.867L216.941 117.004Z" fill="url(#obsyd-ring)"/>
    <path d="M92 157.129C92 154.678 93.1023 152.357 95.0015 150.838L116.734 133.453C121.67 129.504 129 133.018 129 139.344V226C129 231.523 124.523 236 119 236H102C96.4772 236 92 231.523 92 226V157.129Z" fill="url(#obsyd-bars)"/>
    <path d="M136 121.38C136 118.788 137.197 116.341 139.246 114.748L161.315 97.5908C166.259 93.746 173.5 97.2692 173.5 103.534V226C173.5 231.523 169.023 236 163.5 236H146C140.477 236 136 231.523 136 226V121.38Z" fill="url(#obsyd-bars)"/>
    <path d="M165.913 154.057C161.804 157.24 162.384 163.574 167.02 165.963L201.406 123.095V116.906L165.913 154.057Z" fill="#0F172A"/>
  </g>
  <g fill="#F8FAFC">
    <path d="M304.696 141.072C270.92 141.072 247.304 118.416 247.304 87.152C247.304 55.888 270.92 33.232 304.696 33.232C338.216 33.232 361.832 55.632 361.832 87.152C361.832 118.672 338.216 141.072 304.696 141.072ZM304.696 124.176C327.208 124.176 344.424 108.048 344.424 87.152C344.424 66.256 327.208 50.128 304.696 50.128C281.928 50.128 264.712 66.256 264.712 87.152C264.712 108.048 281.928 124.176 304.696 124.176Z"/>
    <path d="M393.509 140.048V22.736H410.405V68.048C416.293 59.6 426.917 54.352 439.837 54.352C465.309 54.352 483.293 72.08 483.293 98.32C483.293 124.304 465.309 142.032 439.837 142.032C426.149 142.032 415.013 136.272 409.381 126.928V140.048H393.509ZM437.533 126.928C454.685 126.928 466.141 114.52 466.141 98.32C466.141 82.12 454.685 69.456 437.533 69.456C420.637 69.456 409.125 82.12 409.125 98.32C409.125 114.52 420.637 126.928 437.533 126.928Z"/>
    <path d="M536.578 142.032C514.706 142.032 497.362 133.2 488.786 118.928L503.442 110.8C510.418 121.168 522.386 127.184 536.834 127.184C550.01 127.184 558.586 121.68 558.586 113.296C558.586 106.064 552.506 102.608 536.066 98.832L527.426 96.784C505.682 91.664 494.354 83.536 494.354 68.624C494.354 50.64 511.378 38.48 534.722 38.48C552.642 38.48 566.138 45.84 573.434 58.192L559.29 66.96C553.466 58.896 545.85 53.648 534.274 53.648C522.442 53.648 511.57 58.96 511.57 67.792C511.57 74.192 516.178 78.544 531.074 82.064L539.842 84.112C564.338 89.808 575.802 97.872 575.802 112.4C575.802 130.64 559.738 142.032 536.578 142.032Z"/>
    <path d="M612.65 176.048L626.154 140.944L590.122 56.336H608.874L635.242 121.232L661.354 56.336H679.722L630.762 176.048H612.65Z"/>
    <path d="M741.788 140.048V126.928C736.092 136.4 724.956 142.032 711.524 142.032C686.052 142.032 668.068 124.304 668.068 98.32C668.068 72.08 686.052 54.352 711.524 54.352C724.444 54.352 735.132 59.6 741.02 68.048V22.736H757.916V140.048H741.788ZM714.02 126.928C730.98 126.928 742.3 114.52 742.3 98.32C742.3 82.12 730.98 69.456 714.02 69.456C696.868 69.456 685.22 82.12 685.22 98.32C685.22 114.52 696.868 126.928 714.02 126.928Z"/>
  </g>
</svg>
